<?xml version="1.0" encoding="UTF-8"?>
<svg width="32" height="32" viewBox="0 0 32 32" fill="none" xmlns="http://www.w3.org/2000/svg">
  <path d="M16 2C8.268 2 2 8.268 2 16s6.268 14 14 14 14-6.268 14-14S23.732 2 16 2zm0 25.2c-6.186 0-11.2-5.014-11.2-11.2S9.814 4.8 16 4.8 27.2 9.814 27.2 16 22.186 27.2 16 27.2z" fill="#4285F4"/>
  <path d="M16 8c-4.418 0-8 3.582-8 8s3.582 8 8 8 8-3.582 8-8-3.582-8-8-8zm0 14.4c-3.534 0-6.4-2.866-6.4-6.4s2.866-6.4 6.4-6.4 6.4 2.866 6.4 6.4-2.866 6.4-6.4 6.4z" fill="#34A853"/>
  <path d="M16 12c-2.21 0-4 1.79-4 4s1.79 4 4 4 4-1.79 4-4-1.79-4-4-4z" fill="#FBBC05"/>
</svg>